<!DOCTYPE svg PUBLIC "-//W3C//DTD SVG 1.1//EN" "http://www.w3.org/Graphics/SVG/1.1/DTD/svg11.dtd">

<!-- Uploaded to: SVG Repo, www.svgrepo.com, Transformed by: SVG Repo Mixer Tools -->
<svg fill="#D3D3D3" width="32" height="30" viewBox="0 0 64 64" id="Layer_1_1_" version="1.1" xml:space="preserve" xmlns="http://www.w3.org/2000/svg" xmlns:xlink="http://www.w3.org/1999/xlink">

<g id="SVGRepo_bgCarrier" stroke-width="0"/>

<g id="SVGRepo_tracerCarrier" stroke-linecap="round" stroke-linejoin="round"/>

<g id="SVGRepo_iconCarrier"> <g> <path d="M60,4H34.868C28.38,4,22.15,7.074,18.203,12.223L5.334,29.007C2.539,32.653,1,37.19,1,41.785V57c0,1.654,1.346,3,3,3h56 c1.654,0,3-1.346,3-3V7C63,5.346,61.654,4,60,4z M6.921,30.224L19.79,13.44C23.361,8.781,28.998,6,34.868,6H60c0.551,0,1,0.449,1,1 v41H3v-6.215C3,37.628,4.393,33.522,6.921,30.224z M60,58H4c-0.551,0-1-0.449-1-1v-3h4v-2H3v-2h58v2H8v2h53v3 C61,57.551,60.551,58,60,58z"/> <path d="M57,38h-8c-1.103,0-2,0.897-2,2v2c0,1.103,0.897,2,2,2h8c1.103,0,2-0.897,2-2v-2C59,38.897,58.103,38,57,38z M49,40h4v2h-4 V40z M57,42h-2v-2h2V42z"/> <path d="M13,36h6h40V8H34.917c-5.285,0-10.347,2.513-13.541,6.723L12.801,26.02C11.241,26.125,10,27.414,10,29v4 C10,34.654,11.346,36,13,36z M22.968,15.932C25.787,12.217,30.254,10,34.917,10H57v24H22.974C23.609,33.162,24,32.13,24,31v-5 h-8.673L22.968,15.932z M12,29c0-0.551,0.449-1,1-1h9v3c0,1.654-1.346,3-3,3h-6c-0.551,0-1-0.449-1-1V29z"/> </g> </g>

</svg>
